<svg id="visual" viewBox="0 0 900 600" width="900" height="600" xmlns="http://www.w3.org/2000/svg" xmlns:xlink="http://www.w3.org/1999/xlink" version="1.1"><path d="M0 97L82 61L164 97L245 73L327 43L409 85L491 55L573 109L655 67L736 61L818 97L900 115L900 0L818 0L736 0L655 0L573 0L491 0L409 0L327 0L245 0L164 0L82 0L0 0Z" fill="#038373"></path><path d="M0 271L82 253L164 313L245 187L327 163L409 307L491 265L573 283L655 283L736 289L818 265L900 223L900 113L818 95L736 59L655 65L573 107L491 53L409 83L327 41L245 71L164 95L82 59L0 95Z" fill="#00957c"></path><path d="M0 373L82 295L164 373L245 277L327 235L409 403L491 349L573 331L655 379L736 391L818 367L900 301L900 221L818 263L736 287L655 281L573 281L491 263L409 305L327 161L245 185L164 311L82 251L0 269Z" fill="#00a784"></path><path d="M0 451L82 427L164 463L245 403L327 331L409 499L491 475L573 433L655 493L736 529L818 511L900 367L900 299L818 365L736 389L655 377L573 329L491 347L409 401L327 233L245 275L164 371L82 293L0 371Z" fill="#00b98a"></path><path d="M0 601L82 601L164 601L245 601L327 601L409 601L491 601L573 601L655 601L736 601L818 601L900 601L900 365L818 509L736 527L655 491L573 431L491 473L409 497L327 329L245 401L164 461L82 425L0 449Z" fill="#00cc8e"></path></svg>